<svg width="45" height="45" viewBox="0 0 45 45" fill="none" xmlns="http://www.w3.org/2000/svg">
<path d="M15.9375 29.0625C14.0625 29.0625 10.3125 30.9375 10.3125 35.625" stroke="#B9B100" stroke-width="2" stroke-linecap="round"/>
<path d="M29.0625 29.0625C30.9375 29.0625 34.6875 30.9375 34.6875 35.625" stroke="#B9B100" stroke-width="2" stroke-linecap="round"/>
<path d="M26.25 29.0625L22.8409 33.1534M21.5625 34.6875L22.8409 33.1534M18.75 29.0625L22.8409 33.1534" stroke="#B9B100" stroke-width="2" stroke-linecap="round"/>
<path d="M15.9375 10.3125C13.125 12.1875 10.3125 22.125 17.8125 24.375" stroke="#B9B100" stroke-width="2" stroke-linecap="round"/>
<path d="M29.0625 10.3125C31.875 12.1875 34.6875 22.125 27.1875 24.375" stroke="#B9B100" stroke-width="2" stroke-linecap="round"/>
<path d="M16.7329 18C16.5814 18.5941 16.5 19.2235 16.5 19.875C16.5 23.4994 19.0184 27.375 22.125 27.375C25.2316 27.375 27.75 23.4994 27.75 19.875C27.75 19.2235 27.6686 18.5941 27.5171 18" stroke="#B9B100" stroke-width="2" stroke-linecap="round"/>
<path d="M24.375 14.0625C23.5507 14.8868 21.2768 17.1608 16.2786 17.6978" stroke="#B9B100" stroke-width="2" stroke-linecap="round"/>
<path d="M23.4375 15.9375C24.375 16.875 25.3125 17.8125 28.125 17.8125" stroke="#B9B100" stroke-width="2" stroke-linecap="round"/>
<path d="M29.85 7.2261C29.9328 7.08262 29.8838 6.89885 29.7387 6.81889C27.523 5.59809 25.033 4.95668 22.5 4.95668C19.967 4.95668 17.477 5.59809 15.2613 6.81889C15.1162 6.89885 15.0672 7.08262 15.15 7.2261L17.9967 12.1567C18.0795 12.3002 18.2628 12.3488 18.409 12.271C19.6671 11.6013 21.0718 11.25 22.5 11.25C23.9282 11.25 25.3329 11.6013 26.591 12.271C26.7372 12.3488 26.9205 12.3002 27.0033 12.1567L29.85 7.2261Z" stroke="#B9B100" stroke-width="2"/>
<path d="M15.4688 32.3438V35.1562M14.0625 33.75H16.875" stroke="#B9B100" stroke-width="2" stroke-linecap="round"/>
</svg>
