<svg width="46" height="46" viewBox="0 0 46 46" fill="none" xmlns="http://www.w3.org/2000/svg">
<path d="M36.125 32.8391C36.125 34.887 34.3011 36.7308 32.5055 37.4656C28.364 39.1887 23.636 36.5974 20.3232 34.1891C17.053 31.804 14.1595 28.9241 11.7744 25.6531C9.38414 22.3351 6.84395 17.6967 8.50699 13.5453C9.22421 11.7251 10.9816 9.875 13.056 9.875C16.079 9.875 20.7026 16.7383 18.0839 19.3531C17.3911 20.0721 16.5854 20.5597 16.9431 21.6312C17.7677 23.1408 19.1005 24.4375 20.295 25.6531C21.5241 26.8577 22.8131 28.2011 24.3511 29.0141C25.3962 29.4315 25.9206 28.5629 26.6045 27.8891C28.958 25.5391 36.125 29.5337 36.125 32.8391Z" stroke="#46A97C" stroke-width="2" stroke-miterlimit="10"/>
<path d="M24.875 15.5C24.875 11.8756 27.8131 8.9375 31.4375 8.9375V8.9375C35.0619 8.9375 38 11.8756 38 15.5V15.5C38 19.1244 35.0619 22.0625 31.4375 22.0625H25.5C25.3838 22.0625 25.3258 22.0625 25.2775 22.0529C25.0791 22.0134 24.9241 21.8584 24.8846 21.66C24.875 21.6117 24.875 21.5537 24.875 21.4375V15.5Z" stroke="#46A97C" stroke-width="2"/>
<path d="M31.4375 12.6875V18.3125M28.625 15.5L34.25 15.5" stroke="#46A97C" stroke-width="2" stroke-linecap="round"/>
</svg>
