<svg width="45" height="30" viewBox="0 0 45 30" fill="none" xmlns="http://www.w3.org/2000/svg">
<rect x="8.31818" y="1.5" width="35.1818" height="22.4237" rx="4.5" stroke="#5787F5" stroke-width="3"/>
<rect y="4.57628" width="38.1818" height="25.4237" rx="6" fill="#5787F5"/>
<path d="M18.8759 25.3819C18.5522 25.3819 18.2787 25.2755 18.0554 25.0627C17.8322 24.8498 17.7205 24.5838 17.7205 24.2645V23.0833L18.2229 23.5143C17.4749 23.4824 16.8275 23.3919 16.2805 23.2429C15.7335 23.094 15.287 22.945 14.9409 22.796C14.6507 22.6683 14.4442 22.4874 14.3214 22.2533C14.2097 22.0191 14.1651 21.7797 14.1874 21.5349C14.2209 21.2902 14.3158 21.0667 14.4721 20.8645C14.6283 20.6623 14.8293 20.5293 15.0749 20.4654C15.3316 20.3909 15.6274 20.4229 15.9623 20.5612C16.1856 20.6783 16.5205 20.8006 16.967 20.9283C17.4247 21.0454 17.9884 21.1039 18.6582 21.1039C19.1271 21.1039 19.4955 21.0614 19.7634 20.9762C20.0425 20.8911 20.2378 20.7794 20.3495 20.641C20.4722 20.492 20.5336 20.3324 20.5336 20.1621C20.5336 20.0025 20.489 19.8695 20.3997 19.7631C20.3215 19.646 20.1876 19.5449 19.9978 19.4598C19.808 19.364 19.5457 19.2789 19.2108 19.2044L17.3187 18.8213C16.2805 18.5978 15.5047 18.2253 14.9912 17.7039C14.4888 17.1718 14.2376 16.4854 14.2376 15.6447C14.2376 15.0062 14.3995 14.4369 14.7232 13.9367C15.0581 13.4259 15.5214 13.0109 16.113 12.6916C16.7159 12.3723 17.4191 12.1702 18.2229 12.085L17.7205 12.3564V11.2869C17.7205 10.9676 17.8322 10.7016 18.0554 10.4887C18.2787 10.2759 18.5522 10.1695 18.8759 10.1695C19.2108 10.1695 19.4899 10.2759 19.7132 10.4887C19.9364 10.7016 20.048 10.9676 20.048 11.2869V12.3564L19.5457 12.0531C19.9699 12.0637 20.4276 12.1329 20.9188 12.2606C21.4099 12.3777 21.8397 12.5426 22.2081 12.7555C22.4649 12.8832 22.6435 13.0587 22.7439 13.2822C22.8556 13.5057 22.8946 13.7345 22.8612 13.9686C22.8388 14.1921 22.7495 14.3943 22.5932 14.5752C22.4481 14.7561 22.2472 14.8785 21.9904 14.9423C21.7448 14.9955 21.449 14.953 21.103 14.8146C20.8462 14.7082 20.556 14.6231 20.2322 14.5592C19.9197 14.4847 19.5178 14.4475 19.0266 14.4475C18.435 14.4475 17.9773 14.5486 17.6536 14.7508C17.341 14.953 17.1847 15.2137 17.1847 15.533C17.1847 15.7458 17.274 15.9267 17.4526 16.0757C17.6424 16.214 17.9829 16.3364 18.474 16.4428L20.3829 16.8419C21.4434 17.0654 22.2249 17.4378 22.7272 17.9593C23.2407 18.4701 23.4975 19.1352 23.4975 19.9546C23.4975 20.5931 23.3356 21.1571 23.0119 21.6467C22.6881 22.1362 22.236 22.5353 21.6555 22.8439C21.0862 23.1525 20.422 23.3547 19.6629 23.4505L20.048 23.0673V24.2645C20.048 24.5838 19.9364 24.8498 19.7132 25.0627C19.5011 25.2755 19.222 25.3819 18.8759 25.3819Z" fill="white"/>
</svg>
