<svg width="46" height="46" viewBox="0 0 46 46" fill="none" xmlns="http://www.w3.org/2000/svg">
<path d="M16.4375 26.75H17.189C17.2994 26.75 17.3967 26.6776 17.4284 26.5718L20.0059 17.9803C20.0513 17.8288 20.2698 17.8416 20.2973 17.9973L22.8776 32.6189C22.9057 32.7783 23.1316 32.7862 23.1708 32.6292L24.8277 26.0019C24.8555 25.8906 24.9555 25.8125 25.0702 25.8125H29.5625" stroke="#E86F6F" stroke-width="2" stroke-linecap="round"/>
<path d="M17.375 8.46875V8.46875C17.375 8.78805 17.375 8.9477 17.3932 9.08166C17.5142 9.97261 18.2149 10.6733 19.1058 10.7943C19.2398 10.8125 19.3995 10.8125 19.7187 10.8125H26.2813C26.6005 10.8125 26.7602 10.8125 26.8942 10.7943C27.7851 10.6733 28.4858 9.97261 28.6068 9.08166C28.625 8.9477 28.625 8.78805 28.625 8.46875V8.46875M17.375 8.46875V8.46875C17.375 8.14945 17.375 7.9898 17.3932 7.85584C17.5142 6.96489 18.2149 6.2642 19.1058 6.14319C19.2398 6.125 19.3995 6.125 19.7187 6.125H26.2813C26.6005 6.125 26.7602 6.125 26.8942 6.14319C27.7851 6.2642 28.4858 6.96489 28.6068 7.85584C28.625 7.9898 28.625 8.14945 28.625 8.46875V8.46875M17.375 8.46875H16.6875C14.8019 8.46875 13.8591 8.46875 13.2733 9.05454C12.6875 9.64032 12.6875 10.5831 12.6875 12.4687V33.9375C12.6875 36.2945 12.6875 37.473 13.4197 38.2053C14.152 38.9375 15.3305 38.9375 17.6875 38.9375H28.3125C30.6695 38.9375 31.848 38.9375 32.5803 38.2053C33.3125 37.473 33.3125 36.2945 33.3125 33.9375V12.4687C33.3125 10.5831 33.3125 9.64032 32.7267 9.05454C32.1409 8.46875 31.1981 8.46875 29.3125 8.46875H28.625" stroke="#E86F6F" stroke-width="2"/>
</svg>
