<svg width="20" height="17" viewBox="0 0 20 17" fill="none" xmlns="http://www.w3.org/2000/svg">
<path d="M17.2903 10.3357C17.1938 9.66331 16.6764 9.13911 16.0102 8.98286C13.4211 8.37399 12.772 6.87802 12.6625 5.21875C12.2034 5.13306 11.3865 5.04032 10 5.04032C8.61349 5.04032 7.79666 5.13306 7.3375 5.21875C7.22799 6.87802 6.57894 8.37399 3.98977 8.98286C3.32364 9.14012 2.80621 9.66331 2.70976 10.3357L2.21042 13.8054C2.03459 15.0272 2.92879 16.129 4.17263 16.129H15.8274C17.0702 16.129 17.9654 15.0272 17.7896 13.8054L17.2903 10.3357ZM10 13.6008C8.59842 13.6008 7.46209 12.4718 7.46209 11.0806C7.46209 9.68952 8.59842 8.56048 10 8.56048C11.4016 8.56048 12.5379 9.68952 12.5379 11.0806C12.5379 12.4718 11.4006 13.6008 10 13.6008ZM19.997 4.03226C19.9729 2.52016 16.1368 0.00100806 10 0C3.86217 0.00100806 0.0261544 2.52016 0.00304589 4.03226C-0.0200627 5.54435 0.0241451 7.5121 2.55001 7.18448C5.50489 6.8004 5.32304 5.76512 5.32304 4.28528C5.32304 3.25302 7.72633 3.00403 10 3.00403C12.2737 3.00403 14.676 3.25302 14.677 4.28528C14.677 5.76512 14.4951 6.8004 17.45 7.18448C19.9749 7.5121 20.0201 5.54435 19.997 4.03226Z" fill="white"/>
</svg>
