<svg width="20" height="19" viewBox="0 0 20 19" fill="none" xmlns="http://www.w3.org/2000/svg">
<g filter="url(#filter0_b_16_603)">
<path d="M20 9.5C20 14.7467 15.5228 19 10 19C4.47715 19 0 14.7467 0 9.5C0 4.25329 4.47715 0 10 0C15.5228 0 20 4.25329 20 9.5ZM1.39821 9.5C1.39821 14.0131 5.24936 17.6717 10 17.6717C14.7506 17.6717 18.6018 14.0131 18.6018 9.5C18.6018 4.9869 14.7506 1.3283 10 1.3283C5.24936 1.3283 1.39821 4.9869 1.39821 9.5Z" fill="white"/>
</g>
<rect x="3.73456" y="5.85901" width="3.30695" height="3.02823" rx="0.495157" fill="white"/>
<rect x="7.81277" y="5.85913" width="3.30695" height="3.02823" rx="0.495157" fill="white"/>
<rect x="11.8921" y="5.85913" width="3.30695" height="3.02823" rx="0.495157" fill="white"/>
<rect x="3.73456" y="10.1899" width="3.30695" height="3.02823" rx="0.495157" fill="white"/>
<rect x="7.81332" y="10.1899" width="3.30695" height="3.02823" rx="0.495157" fill="white"/>
<path fill-rule="evenodd" clip-rule="evenodd" d="M13.9979 9.65595C14.444 9.67942 14.8685 9.84574 15.2024 10.1278L14.8489 10.5053C14.6049 10.2992 14.2946 10.1776 13.9685 10.1604C13.6424 10.1433 13.3199 10.2315 13.0534 10.4109C12.7869 10.5902 12.5922 10.8499 12.5011 11.1478C12.4099 11.4457 12.4276 11.7642 12.5514 12.0513C12.6752 12.3384 12.8976 12.5772 13.1826 12.7288C13.4675 12.8804 13.798 12.9358 14.1204 12.886C14.4427 12.8363 14.7378 12.6842 14.9575 12.4547C15.1773 12.2253 15.3087 11.9318 15.3304 11.6223L15.8611 11.6558C15.8314 12.0793 15.6516 12.4808 15.351 12.7947C15.0503 13.1087 14.6467 13.3167 14.2057 13.3847C13.7647 13.4528 13.3125 13.377 12.9227 13.1696C12.5329 12.9622 12.2285 12.6355 12.0592 12.2428C11.8899 11.85 11.8656 11.4143 11.9904 11.0068C12.1151 10.5993 12.3814 10.2439 12.746 9.99856C13.1106 9.75324 13.5519 9.63248 13.9979 9.65595ZM14.2161 12.0793L16.5577 10.3491L16.1458 9.7916L13.9951 11.3807L13.415 11.0134L13.0441 11.5991L13.8247 12.0934C13.9455 12.1699 14.101 12.1644 14.2161 12.0793Z" fill="white"/>
<defs>
<filter id="filter0_b_16_603" x="-1.98063" y="-1.98063" width="23.9613" height="22.9613" filterUnits="userSpaceOnUse" color-interpolation-filters="sRGB">
<feFlood flood-opacity="0" result="BackgroundImageFix"/>
<feGaussianBlur in="BackgroundImageFix" stdDeviation="0.990314"/>
<feComposite in2="SourceAlpha" operator="in" result="effect1_backgroundBlur_16_603"/>
<feBlend mode="normal" in="SourceGraphic" in2="effect1_backgroundBlur_16_603" result="shape"/>
</filter>
</defs>
</svg>
